<?xml version="1.0" encoding="UTF-8"?>
<svg width="24px" height="24px" viewBox="0 0 24 24" version="1.1" xmlns="http://www.w3.org/2000/svg" xmlns:xlink="http://www.w3.org/1999/xlink">
    <!-- Generator: Sketch 41.2 (35397) - http://www.bohemiancoding.com/sketch -->
    <title>export-icons/integer</title>
    <desc>Created with Sketch.</desc>
    <defs></defs>
    <g id="Symbols" stroke="none" stroke-width="1" fill="none" fill-rule="evenodd" fill-opacity="0.87">
        <g id="export-icons/integer" fill="#000000">
            <path d="M18.6884766,20 L5.1171875,20 C4.82096206,20 4.67285156,19.8349626 4.67285156,19.5048828 C4.67285156,19.420247 7.84241622,14.2194526 14.1816406,3.90234375 L12.3154297,3.90234375 C9.55630131,3.90234375 7.73242632,4.7106039 6.84375,6.32714844 L6.55175781,7.25390625 C6.41634047,7.67708545 6.23437614,7.88867188 6.00585938,7.88867188 C5.69270677,7.88867188 5.53613281,7.74902483 5.53613281,7.46972656 L5.53613281,7.38085938 L5.98046875,3.39453125 C6.01432309,3.09830581 6.15397013,2.95019531 6.39941406,2.95019531 L18.5996094,2.95019531 C18.8958348,2.95019531 19.0439453,3.10676927 19.0439453,3.41992188 C19.0439453,3.52148488 19.0270184,3.60188772 18.9931641,3.66113281 L9.54785156,19.0478516 L13.0644531,19.0478516 C14.207037,19.0478516 15.2522739,18.7664416 16.2001953,18.2036133 C17.1481167,17.6407849 17.8802058,16.860031 18.3964844,15.8613281 L18.8789062,14.3251953 C18.9804693,14.0543606 19.1370432,13.9189453 19.3486328,13.9189453 C19.6617854,13.9189453 19.8183594,14.0416654 19.8183594,14.2871094 C19.8183594,14.3125001 19.8141276,14.3421222 19.8056641,14.3759766 L19.0947266,19.5429688 C19.0524086,19.8476578 18.9169933,20 18.6884766,20 Z M8.03710938,3.90234375 L6.88183594,3.90234375 L6.78027344,4.84179688 C7.13574396,4.47786276 7.55468509,4.16471485 8.03710938,3.90234375 Z M17.7236328,3.90234375 L15.2988281,3.90234375 L6.01855469,19.0478516 L8.43066406,19.0478516 L17.7236328,3.90234375 Z M18.4091797,17.5625 C17.9098282,18.1549509 17.321618,18.6500631 16.6445312,19.0478516 L18.2060547,19.0478516 L18.4091797,17.5625 Z" id="ℤ"></path>
        </g>
    </g>
</svg>