<?xml version="1.0" encoding="UTF-8"?>
<svg width="24px" height="24px" viewBox="0 0 24 24" version="1.1" xmlns="http://www.w3.org/2000/svg" xmlns:xlink="http://www.w3.org/1999/xlink">
    <!-- Generator: Sketch 41.2 (35397) - http://www.bohemiancoding.com/sketch -->
    <title>export-icons/natural</title>
    <desc>Created with Sketch.</desc>
    <defs></defs>
    <g id="Symbols" stroke="none" stroke-width="1" fill="none" fill-rule="evenodd" fill-opacity="0.87">
        <g id="export-icons/natural" fill="#000000">
            <path d="M20.1005859,2.95019531 C20.3798842,2.95019531 20.5195312,3.09195822 20.5195312,3.37548828 C20.5195312,3.65901834 20.3968111,3.83040335 20.1513672,3.88964844 L19.4785156,3.94042969 C19.0553364,4.01660194 18.7887375,4.2324201 18.6787109,4.58789062 C18.6194658,4.77408947 18.5898438,5.14224985 18.5898438,5.69238281 L18.5898438,20.0380859 C18.5898438,20.3258478 18.4375015,20.4697266 18.1328125,20.4697266 C17.9720044,20.4697266 17.8450525,20.4104824 17.7519531,20.2919922 L6.94824219,6.00976562 L6.94824219,17.2324219 C6.94824219,17.9856808 7.06884645,18.4765614 7.31005859,18.7050781 C7.55127074,18.9335949 8.05273057,19.0478516 8.81445312,19.0478516 C9.11914215,19.0478516 9.27148438,19.2065414 9.27148438,19.5239258 C9.27148438,19.8413102 9.11914215,20 8.81445312,20 L4.1171875,20 C3.82096206,20 3.67285156,19.8349626 3.67285156,19.5048828 C3.67285156,19.217121 3.85904762,19.0647787 4.23144531,19.0478516 C4.79004186,19.0224608 5.14127532,18.9674483 5.28515625,18.8828125 C5.65755395,18.6796865 5.84375,18.2057329 5.84375,17.4609375 L5.84375,4.65136719 C5.39518005,4.15201573 4.91699473,3.90234375 4.40917969,3.90234375 C4.12988142,3.90234375 3.99023438,3.74365393 3.99023438,3.42626953 C3.99023438,3.10888513 4.12988142,2.95019531 4.40917969,2.95019531 L9.57617188,2.95019531 C9.69466205,2.95019531 9.80468699,3.01790297 9.90625,3.15332031 L17.4726562,13.3349609 L17.4726562,5.76855469 C17.4726562,4.98990496 17.3583996,4.4842134 17.1298828,4.25146484 C16.901366,4.01871628 16.3977904,3.90234375 15.6191406,3.90234375 C15.3144516,3.90234375 15.1621094,3.74365393 15.1621094,3.42626953 C15.1621094,3.10888513 15.3144516,2.95019531 15.6191406,2.95019531 L20.1005859,2.95019531 Z M17.4726562,18.3623047 L17.4726562,14.9472656 L9.27148438,3.90234375 L6.5546875,3.90234375 L17.4726562,18.3623047 Z" id="ℕ"></path>
        </g>
    </g>
</svg>