<svg width="24" height="24" viewBox="0 0 24 24" xmlns="http://www.w3.org/2000/svg" xmlns:xlink="http://www.w3.org/1999/xlink"><title>export-icons/real</title><defs><path d="M20.342 19.048c.28 0 .42.16.42.476 0 .317-.14.476-.42.476h-4.304c-.135 0-.24-.06-.317-.178L10.81 12.23h-.826v5.46c0 .6.098.977.292 1.13.195.152.563.228 1.105.228.54 0 .81.152.81.457 0 .33-.142.495-.43.495H4.104c-.287 0-.43-.165-.43-.495 0-.305.284-.457.856-.457.57 0 .94-.08 1.104-.24.165-.162.248-.55.248-1.17V5.262c0-.6-.1-.977-.3-1.13-.197-.15-.566-.228-1.103-.228-.538 0-.807-.158-.807-.476 0-.317.144-.476.43-.476h8.19c1.7 0 3.165.343 4.393 1.03 1.498.836 2.247 2.042 2.247 3.617 0 2.378-1.448 3.83-4.342 4.354 3.014 4.732 4.93 7.098 5.752 7.098zm-5.6-8.1c2.16-.49 3.238-1.597 3.238-3.32 0-1.722-1.112-2.87-3.338-3.446.61.744.914 1.883.914 3.415s-.27 2.65-.813 3.35zm-4.176.343c1.575 0 2.64-.23 3.2-.69.558-.462.838-1.397.838-2.807s-.23-2.41-.692-3.002c-.462-.59-1.31-.888-2.546-.888-.922 0-1.384.318-1.384.952v6.437h.584zm8.062 7.758c-1.244-1.15-2.983-3.538-5.218-7.16-.406.144-.905.245-1.498.304l4.443 6.856h2.273zM6.834 5.26v12.38c0 .6-.076 1.07-.23 1.408h2.667c-.16-.34-.24-.79-.24-1.36V4.855c0-.355.093-.672.28-.952H6.593c.16.34.24.792.24 1.36z" id="a"/></defs><use fill-opacity=".87" fill="#000" xlink:href="#a" fill-rule="evenodd"/></svg>