<svg viewBox="0 0 24 24" xmlns="http://www.w3.org/2000/svg" xmlns:xlink="http://www.w3.org/1999/xlink"><title>export-icons/complex</title><defs><path d="M19.96 16.725c0 .093-.03.186-.088.28-.677 1.023-1.73 1.857-3.155 2.5-1.426.643-2.8.965-4.12.965-2.69 0-4.85-.838-6.474-2.514-1.625-1.676-2.437-3.86-2.437-6.557 0-2.697.814-4.885 2.443-6.565 1.63-1.68 3.785-2.52 6.468-2.52.82 0 1.745.195 2.774.584 1.028.39 1.788.583 2.278.583.347 0 .576-.194.686-.584.11-.39.275-.585.495-.585.272 0 .407.127.407.38v5.04c0 .29-.135.433-.406.433-.185 0-.333-.11-.443-.33-.11-.296-.297-.728-.56-1.295-.464-.846-1.222-1.62-2.27-2.317-1.05-.698-2.037-1.047-2.96-1.047-1.624 0-2.835 1.02-3.63 3.058-.584 1.49-.876 3.208-.876 5.155 0 5.247 1.605 7.87 4.812 7.87 2.108 0 3.877-.66 5.307-1.98l.862-.863c.127-.12.246-.178.356-.178.355 0 .533.16.533.483zm-1.6-12.57c-.21.128-.426.192-.646.192-.22 0-.428-.013-.622-.038.525.473.948.947 1.27 1.42V4.156zM7.216 11.394c0-3.487.762-6.056 2.285-7.706-1.625.584-2.856 1.565-3.694 2.945-.838 1.38-1.257 2.992-1.257 4.837 0 1.844.45 3.467 1.35 4.867.902 1.4 2.23 2.364 3.98 2.89-1.776-1.347-2.665-3.958-2.665-7.834z" id="a"/></defs><use fill-opacity=".87" fill="#000" xlink:href="#a" fill-rule="evenodd"/></svg>