<svg viewBox="0 0 24 24" xmlns="http://www.w3.org/2000/svg">
  <title>
    export-icons/integer
  </title>
  <path d="M18.688 20H5.118c-.297 0-.445-.165-.445-.495 0-.085 3.17-5.286 9.51-15.603h-1.868c-2.76 0-4.583.81-5.47 2.425l-.293.927c-.136.423-.318.635-.546.635-.313 0-.47-.14-.47-.42v-.09l.444-3.985c.034-.297.174-.445.42-.445h12.2c.296 0 .444.157.444.47 0 .1-.017.182-.05.24L9.547 19.05h3.516c1.143 0 2.188-.282 3.136-.844.948-.563 1.68-1.344 2.196-2.343l.483-1.535c.1-.27.257-.406.47-.406.312 0 .468.122.468.367 0 .026-.004.055-.012.09l-.71 5.166c-.044.305-.18.457-.408.457zM8.038 3.902H6.88l-.102.94c.356-.364.775-.677 1.257-.94zm9.686 0H15.3L6.02 19.048h2.41l9.294-15.146zm.685 13.66c-.5.593-1.088 1.088-1.765 1.486h1.56l.204-1.485z" id="a" fill-rule="evenodd" />
</svg>
