<svg viewBox="0 0 24 24" xmlns="http://www.w3.org/2000/svg">
  <title>
    export-icons/natural
  </title>
  <path d="M20.1 2.95c.28 0 .42.142.42.425 0 .284-.123.455-.37.515l-.67.05c-.425.077-.69.292-.8.648-.06.186-.09.554-.09 1.104v14.346c0 .288-.152.432-.457.432-.16 0-.288-.06-.38-.178L6.947 6.01v11.222c0 .754.12 1.245.362 1.473.24.23.743.343 1.504.343.305 0 .457.16.457.476 0 .317-.15.476-.456.476H4.117c-.296 0-.444-.165-.444-.495 0-.288.186-.44.558-.457.56-.026.91-.08 1.055-.165.373-.203.56-.677.56-1.422V4.65c-.45-.498-.928-.748-1.436-.748-.28 0-.42-.158-.42-.476 0-.317.14-.476.42-.476h5.166c.12 0 .23.068.33.203l7.567 10.182V5.77c0-.78-.115-1.286-.343-1.52-.23-.23-.732-.348-1.51-.348-.306 0-.458-.158-.458-.476 0-.317.152-.476.457-.476h4.48zm-2.627 15.412v-3.415L9.27 3.902H6.556l10.918 14.46z" id="a" fill-rule="evenodd" />
</svg>
